<?xml version="1.0" encoding="UTF-8"?>
<svg xmlns="http://www.w3.org/2000/svg" xmlns:xlink="http://www.w3.org/1999/xlink" width="2834.88" height="2834.88" viewBox="0 0 2834.88 2834.88">
<path fill-rule="evenodd" fill="rgb(0%, 0%, 0%)" fill-opacity="1" d="M 1617.75 1173.820312 C 1661.761719 1203.121094 1750.210938 1209.960938 1790.191406 1213.460938 C 1816.460938 1215.769531 1905.800781 1205.039062 1923.398438 1201.660156 C 1960.371094 1194.570312 1996.300781 1185.609375 2042.539062 1184.449219 C 2076.320312 1183.601562 2115.089844 1186.089844 2163.441406 1196.820312 C 2188.671875 1202.421875 2208.871094 1202.28125 2226.738281 1197.691406 C 2282.46875 1183.378906 2316.800781 1138.941406 2384.039062 1130.558594 L 2476.519531 1119.050781 L 2386.730469 1143.980469 C 2320.601562 1162.339844 2292.929688 1212.160156 2239.230469 1234.769531 C 2224.609375 1240.921875 2208.371094 1244.980469 2189.441406 1246.398438 C 2198.070312 1255.769531 2207.589844 1265.671875 2217.5 1275.191406 C 2234.46875 1291.511719 2252.308594 1306.871094 2268.640625 1316.078125 C 2309.199219 1338.929688 2329.699219 1324.941406 2374.191406 1338.070312 C 2387.191406 1341.910156 2402.089844 1347.78125 2419.890625 1357.289062 C 2448.300781 1372.460938 2468.191406 1386.839844 2482.121094 1399.25 C 2507.910156 1422.21875 2512.96875 1438.011719 2512.96875 1438.011719 C 2512.96875 1438.011719 2506.511719 1423.03125 2479.050781 1403.058594 C 2464.351562 1392.371094 2443.671875 1380.339844 2414.671875 1368.359375 C 2397.148438 1361.121094 2382.691406 1356.980469 2370.191406 1354.601562 C 2347.75 1350.320312 2331.808594 1352.128906 2316.238281 1352.601562 C 2298.078125 1353.160156 2280.558594 1351.988281 2256.070312 1341.21875 C 2236.878906 1332.789062 2215.21875 1317.859375 2194.53125 1301.578125 C 2169.160156 1281.609375 2145.558594 1259.488281 2130.851562 1245.109375 C 2100.691406 1244.429688 2075.371094 1246.648438 2052.898438 1250.351562 C 2052.980469 1250.429688 2053.058594 1250.511719 2053.128906 1250.589844 C 2072.21875 1270.25 2095.199219 1297.570312 2119.589844 1336.738281 C 2147 1380.761719 2164.488281 1409.378906 2175.289062 1432.941406 C 2187.691406 1439.019531 2223.789062 1457.121094 2259.878906 1479.179688 C 2279.988281 1491.46875 2300.050781 1504.808594 2316.109375 1518.070312 C 2333.390625 1532.339844 2349.929688 1540.621094 2366.628906 1545.191406 C 2381.539062 1549.261719 2411.179688 1555.808594 2440.199219 1554.078125 C 2469.101562 1552.359375 2497.398438 1542.378906 2503.609375 1538.839844 C 2527.058594 1525.441406 2540.308594 1506.359375 2540.308594 1506.359375 C 2540.308594 1506.359375 2528.871094 1527.148438 2506.5 1543.328125 C 2500.230469 1547.871094 2472.511719 1561.640625 2442.269531 1566.679688 C 2411.609375 1571.789062 2378.359375 1568.109375 2362.238281 1565.519531 C 2342.140625 1562.289062 2321.738281 1554.71875 2299.738281 1540.210938 C 2283.449219 1529.46875 2263.390625 1519.101562 2243.421875 1509.671875 C 2224.761719 1500.851562 2206.210938 1493.011719 2190.839844 1486.828125 C 2192.429688 1501.140625 2192.289062 1516.628906 2190.96875 1535.96875 C 2189.140625 1562.960938 2197.289062 1589.300781 2211.171875 1615.03125 C 2231.128906 1652.03125 2261.75 1687.289062 2291.96875 1720.519531 C 2256.789062 1691.050781 2221.058594 1659.449219 2195.75 1624.761719 C 2175.578125 1597.109375 2162.730469 1567.550781 2160.589844 1535.96875 C 2158.5 1505.191406 2155.101562 1486.449219 2143.691406 1464.851562 C 2142.660156 1463.410156 2141.800781 1461.851562 2141.140625 1460.21875 C 2128.5 1438.101562 2107.53125 1412.929688 2072.488281 1370.691406 C 2052.039062 1346.019531 2033.261719 1327.730469 2016.980469 1313.679688 C 1995.179688 1294.871094 1981.480469 1286.238281 1967.75 1283.210938 C 1959.71875 1281.429688 1946.820312 1281.898438 1945.160156 1282.480469 C 1922.359375 1290.460938 1888.121094 1294.269531 1852.640625 1296.378906 C 1829.601562 1297.75 1806.121094 1298.089844 1785.660156 1297.960938 C 1805.738281 1316.5 1827.839844 1335.378906 1847.738281 1356.320312 C 1849.851562 1358.539062 1851.941406 1360.78125 1854.011719 1363.03125 C 1871.261719 1360.941406 1904.960938 1358.648438 1937.300781 1366.738281 C 1958.75 1372.109375 1979.640625 1381.300781 1995.058594 1397.878906 C 2006.859375 1410.570312 2015.320312 1424.039062 2021.589844 1437.878906 C 2038.859375 1476.050781 2038.898438 1515.109375 2060.691406 1531.890625 L 2089.910156 1554.410156 L 2057.890625 1536.089844 C 2033.550781 1522.179688 2027.359375 1483.148438 2004.609375 1447.011719 C 1997.730469 1436.089844 1989.101562 1425.699219 1977.699219 1416.390625 C 1964.539062 1405.648438 1947.929688 1401.359375 1931.429688 1399.570312 C 1914.75 1397.761719 1898.089844 1399.148438 1884.480469 1401.351562 C 1885.730469 1403.28125 1886.960938 1405.238281 1888.148438 1407.210938 C 1908.128906 1440.328125 1929.789062 1483.089844 1955.410156 1519 C 1973.339844 1544.128906 1992.550781 1565.671875 2014.679688 1577.109375 L 2069.488281 1605.441406 L 2010.570312 1587.109375 C 1984.558594 1579.019531 1959.628906 1559.648438 1935.519531 1536.011719 C 1903.539062 1504.648438 1874.230469 1465.800781 1848.390625 1436.21875 C 1836.71875 1422.871094 1822.808594 1411.71875 1808.28125 1401 C 1786.039062 1384.589844 1748.851562 1354.78125 1711.980469 1332.128906 C 1682.738281 1314.171875 1651.53125 1301.441406 1643.46875 1298.390625 C 1606.390625 1284.328125 1566.691406 1276.160156 1556.210938 1274.140625 C 1567.980469 1291.171875 1582.261719 1310.601562 1600.570312 1331.171875 C 1652.390625 1389.371094 1735.578125 1424.070312 1784.191406 1467.300781 C 1806.671875 1487.300781 1824.441406 1507.769531 1833.210938 1531.589844 C 1839.589844 1548.910156 1844.910156 1569.039062 1848.609375 1591.300781 C 1852.339844 1598.898438 1857.910156 1608.210938 1866.160156 1618.578125 C 1877.429688 1632.738281 1892.421875 1648.660156 1913.46875 1664.820312 C 1970.289062 1708.449219 2004.570312 1699.160156 2047.109375 1723.710938 C 2063.101562 1732.929688 2080.230469 1746.039062 2099.621094 1767.738281 C 2121.730469 1792.460938 2137.328125 1811.351562 2148.5 1825.910156 C 2173.699219 1858.761719 2175.679688 1868.492188 2175.679688 1868.492188 C 2175.679688 1868.492188 2172.320312 1859.28125 2142.890625 1830.921875 C 2129.828125 1818.351562 2111.808594 1802.191406 2086.570312 1781.289062 C 2066.671875 1764.808594 2049.988281 1755.398438 2034.738281 1749.421875 C 2014.960938 1741.660156 1997.738281 1740.539062 1979.25 1738.160156 C 1952.648438 1734.730469 1924.410156 1729.210938 1885.410156 1707.640625 C 1876.160156 1702.519531 1867.679688 1697.308594 1859.910156 1692.089844 C 1864.140625 1734.488281 1869.449219 1775.148438 1881.878906 1804.230469 C 1898.039062 1842.019531 1919.53125 1887.113281 1943.121094 1925.699219 C 1961.308594 1955.464844 1980.210938 1981.085938 1998.679688 1995.988281 L 2041.828125 2030.820312 L 1993.859375 2003 C 1972.269531 1990.484375 1948.429688 1966.976562 1924.738281 1938.972656 C 1894.539062 1903.273438 1865.441406 1860.597656 1842.949219 1824.539062 C 1833.460938 1809.308594 1825.71875 1790.5 1818.441406 1769.589844 C 1795.78125 1704.480469 1782.511719 1617.179688 1754.929688 1567.46875 C 1749.230469 1557.199219 1738.21875 1550.679688 1726.53125 1543.128906 C 1715.011719 1535.691406 1701.960938 1529.019531 1687.988281 1522.570312 C 1691.890625 1542.878906 1694.121094 1563.628906 1692.578125 1583.289062 C 1689.949219 1616.621094 1689.101562 1640.621094 1690.71875 1663.601562 C 1692.480469 1688.558594 1696.671875 1711.789062 1703.820312 1743.570312 C 1708.730469 1765.339844 1715.140625 1786.699219 1721.558594 1805.5 C 1733.550781 1840.683594 1745.058594 1866.167969 1745.058594 1866.167969 C 1745.058594 1866.167969 1729.609375 1842.644531 1712.140625 1809.558594 C 1702.621094 1791.539062 1692.699219 1770.910156 1684.230469 1749.640625 C 1671.550781 1717.761719 1663.449219 1694.261719 1657.5 1668.589844 C 1655.730469 1660.949219 1654.199219 1653.160156 1652.839844 1644.941406 C 1640.109375 1658.53125 1625 1675.738281 1611.589844 1693.929688 C 1596.691406 1714.140625 1583.671875 1735.058594 1578.839844 1753.679688 L 1556.960938 1838.464844 L 1564.25 1751.191406 C 1566.050781 1729.96875 1576.089844 1704.628906 1588.578125 1679.800781 C 1609.910156 1637.390625 1638.859375 1597.859375 1646.28125 1587.960938 C 1646.148438 1586.429688 1646.03125 1584.871094 1645.898438 1583.289062 C 1644 1559.140625 1634.449219 1534.128906 1624.300781 1511.761719 C 1620.761719 1503.960938 1616.160156 1496.671875 1610.109375 1491.121094 C 1603.519531 1485.078125 1594.191406 1480.460938 1584.78125 1475.488281 C 1575.761719 1470.730469 1566.890625 1465.761719 1558.199219 1460.53125 C 1552.890625 1478.761719 1545.878906 1497.210938 1536.109375 1513.578125 C 1528.539062 1526.238281 1524.328125 1539.589844 1522.441406 1553.390625 C 1516.460938 1597.230469 1526.699219 1641.949219 1513.449219 1670.109375 C 1507.578125 1682.589844 1502.730469 1694.390625 1498.828125 1704.78125 C 1490.851562 1726.058594 1486.980469 1740.769531 1486.980469 1740.769531 C 1486.980469 1740.769531 1488.308594 1725.511719 1492.601562 1703.039062 C 1494.730469 1691.910156 1497.578125 1679.199219 1501.328125 1665.621094 C 1509.429688 1636.289062 1491.269531 1594.96875 1489.78125 1551.738281 C 1489.128906 1532.898438 1491.890625 1514.171875 1499.078125 1495.539062 C 1506.691406 1475.828125 1509.390625 1453.691406 1510.691406 1433.46875 C 1510.820312 1431.519531 1510.921875 1429.589844 1511.011719 1427.691406 C 1510.378906 1427.171875 1509.75 1426.660156 1509.121094 1426.140625 C 1473.921875 1397.101562 1447.691406 1369.371094 1427.660156 1346.738281 C 1407.910156 1324.410156 1394.808594 1305.949219 1387.070312 1293.941406 C 1371.359375 1317.828125 1353.148438 1343.578125 1333.378906 1368.039062 C 1331.949219 1369.820312 1327.761719 1376.179688 1324.808594 1385.390625 C 1321.828125 1394.679688 1320.078125 1406.820312 1320.421875 1411.960938 C 1321.53125 1428.820312 1323.789062 1441.988281 1327.160156 1454.78125 C 1334.558594 1482.871094 1345.789062 1508.941406 1356.53125 1561.820312 C 1359.5 1576.449219 1360.289062 1591.878906 1359.300781 1607.691406 C 1354.878906 1678.398438 1317.539062 1754.96875 1335.269531 1776.921875 C 1330.960938 1772.699219 1328.878906 1765.75 1328.160156 1756.699219 C 1324.921875 1715.5 1352.480469 1629.96875 1332.230469 1568.25 C 1315.601562 1517.589844 1301.519531 1493.320312 1291.019531 1466.601562 C 1286.328125 1454.660156 1282.460938 1442.320312 1279.21875 1427.421875 C 1272.101562 1434.128906 1264.910156 1440.441406 1257.671875 1446.238281 C 1250.648438 1451.871094 1244.238281 1457.988281 1239.679688 1465.429688 C 1234.210938 1474.378906 1230.160156 1480.460938 1224.808594 1499.929688 C 1221.480469 1512.089844 1217.890625 1526.351562 1214.660156 1541.71875 C 1209.109375 1568.078125 1204.011719 1597.289062 1203.351562 1624.839844 C 1201.941406 1683.648438 1244.371094 1729.308594 1260.351562 1776.449219 C 1265.769531 1792.449219 1269.089844 1808.300781 1267.761719 1824.761719 L 1250.96875 1975.128906 L 1243.300781 1824.761719 C 1241.210938 1799.160156 1225.589844 1777.609375 1208.640625 1754.859375 C 1192.621094 1733.351562 1175.421875 1711.410156 1162.480469 1686.859375 C 1156.738281 1693.269531 1150.421875 1701.328125 1143.941406 1711.339844 C 1133.011719 1728.21875 1121.601562 1749.75 1111.628906 1777.519531 C 1090.410156 1836.628906 1073.898438 1897.273438 1055.351562 1939.9375 C 1041.488281 1971.796875 1026.53125 1993.691406 1008.160156 1998.542969 C 992.746094 2002.617188 982.726562 2006.058594 976.140625 2008.824219 C 964.949219 2013.523438 963.902344 2016.136719 963.902344 2016.136719 C 963.902344 2016.136719 964.625 2013.363281 975.320312 2007.175781 C 981.59375 2003.546875 991.234375 1998.800781 1006.21875 1992.722656 C 1022.03125 1986.3125 1032.089844 1964.640625 1040.820312 1934.6875 C 1053.769531 1890.21875 1062.390625 1828.238281 1075.898438 1767.199219 C 1085.039062 1725.921875 1098.28125 1695.480469 1110.800781 1673.039062 C 1122.699219 1651.710938 1134.660156 1637.410156 1143.679688 1628.410156 C 1143.679688 1628.359375 1143.671875 1628.308594 1143.660156 1628.25 C 1139.320312 1597.039062 1139.488281 1563.140625 1140.878906 1532.359375 C 1141.199219 1525.109375 1141.628906 1518.070312 1142.128906 1511.300781 C 1117.429688 1523.558594 1094.308594 1535.609375 1074.371094 1549.460938 C 1053.988281 1563.628906 1036.960938 1579.410156 1026.671875 1600.550781 C 1025.410156 1603.140625 1019.78125 1617.441406 1016.28125 1632.28125 C 1012.78125 1647.128906 1011.398438 1662.519531 1010.488281 1667.300781 C 1003.128906 1705.878906 996.355469 1737.71875 985.644531 1769.148438 C 975.890625 1797.769531 963.183594 1825.910156 943.789062 1858.246094 C 927.976562 1884.609375 915.367188 1911.519531 905.597656 1935.6875 C 886.671875 1982.519531 878.40625 2018.523438 878.40625 2018.523438 C 878.40625 2018.523438 882.714844 1981.5625 896.488281 1932.574219 C 903.730469 1906.8125 913.59375 1877.945312 926.757812 1849.265625 C 941.644531 1816.820312 950.738281 1789.039062 956.941406 1761.101562 C 961.550781 1740.339844 964.445312 1719.578125 966.730469 1696.929688 C 951.453125 1708.160156 931.75 1719.03125 906.113281 1727.539062 C 850.363281 1746.039062 794.3125 1759.589844 756.34375 1782.128906 C 735.835938 1794.308594 720.722656 1808.878906 714.863281 1828.878906 C 708.378906 1851.03125 695.691406 1869.757812 681.90625 1884.578125 C 658.269531 1909.992188 631.984375 1923.746094 631.984375 1923.746094 C 631.984375 1923.746094 656.585938 1907.917969 677.507812 1880.847656 C 689.105469 1865.84375 699.503906 1847.367188 703.664062 1826.140625 C 708.339844 1802.289062 724.015625 1783.53125 746.542969 1767.210938 C 783.257812 1740.621094 839.164062 1721.230469 894.441406 1697.101562 C 918.003906 1686.808594 934.953125 1674.671875 947.332031 1662.859375 C 953.257812 1657.210938 957.96875 1651.628906 961.703125 1646.421875 C 964.046875 1643.148438 969.695312 1635.21875 972.296875 1625.878906 C 975.566406 1614.148438 975.652344 1600.640625 976.679688 1596.359375 C 983.171875 1569.351562 996.695312 1546.890625 1014.5 1526.53125 C 1045.628906 1490.949219 1093.078125 1463.738281 1142.769531 1431.019531 C 1149.019531 1426.898438 1182.429688 1403.628906 1185.449219 1401.390625 C 1212.199219 1381.539062 1236.410156 1348.53125 1258.5 1314.050781 C 1278.261719 1283.210938 1295.460938 1250.691406 1308.96875 1222.800781 C 1290.691406 1237 1262.898438 1254.148438 1224.148438 1266.871094 C 1205.871094 1272.871094 1184.988281 1278.210938 1161.328125 1281.71875 C 1150.671875 1283.308594 1138.011719 1283.230469 1127.640625 1287.699219 C 1117.25 1292.179688 1109.738281 1298.050781 1098.960938 1308.601562 C 1085.890625 1321.378906 1071.410156 1336.980469 1057.929688 1357.640625 C 1027.910156 1403.628906 1006.5 1443.921875 972.890625 1481.410156 C 952.621094 1504.019531 928.855469 1525.140625 895.980469 1545.5 C 922.46875 1519.109375 940.335938 1494.101562 954.460938 1468.359375 C 966.941406 1445.609375 975.945312 1422.851562 984.375 1399.011719 C 978.660156 1399.398438 971.882812 1400.128906 963.953125 1401.398438 C 949.941406 1403.640625 932.914062 1407.230469 912.414062 1413.261719 C 877.03125 1423.660156 854.78125 1433.238281 839.480469 1449.109375 C 823.15625 1466.050781 814.574219 1489.101562 805.460938 1524.820312 C 798.34375 1552.71875 788.292969 1572.011719 778.257812 1585.320312 C 761.207031 1607.941406 744.699219 1612.941406 744.699219 1612.941406 C 744.699219 1612.941406 760.15625 1606.328125 774.136719 1582.570312 C 782.175781 1568.898438 789.59375 1549.589844 793.296875 1522.441406 C 798.863281 1481.648438 806.425781 1455.289062 822.386719 1434.421875 C 837.96875 1414.039062 861.890625 1399.191406 901.417969 1382.480469 C 928.59375 1370.980469 950.265625 1364.398438 967.039062 1360.378906 C 980.542969 1357.148438 991.261719 1355.691406 999.40625 1355.121094 C 1001.960938 1347.691406 1004.609375 1340.128906 1007.429688 1332.390625 C 1014.578125 1312.738281 1022.949219 1295.851562 1031.410156 1281.058594 C 957.054688 1273.058594 907.742188 1270.558594 868.714844 1284.378906 C 835.859375 1296.011719 811.308594 1318.699219 784.453125 1357.078125 C 762.777344 1388.050781 745.746094 1416.378906 728.148438 1441.949219 C 726.609375 1444.179688 720.730469 1453.570312 715.214844 1465.011719 C 707.34375 1481.308594 699.203125 1502.261719 696.820312 1516.78125 C 694.0625 1533.578125 692.867188 1552.988281 695.9375 1574.949219 C 703.523438 1629.230469 722.335938 1634.589844 729.410156 1653.421875 C 732.664062 1662.078125 733.820312 1673.179688 730.375 1692.371094 C 730.347656 1674.019531 727.703125 1663.871094 723.234375 1656.398438 C 712.234375 1637.988281 691.960938 1635.628906 673.683594 1580.128906 C 665.777344 1556.128906 663.195312 1534.101562 662.847656 1514.679688 C 661.746094 1515.539062 660.636719 1516.390625 659.511719 1517.238281 C 629.390625 1539.96875 590.761719 1558.96875 534.355469 1573 C 483.742188 1585.601562 447.554688 1599.828125 421.648438 1613.339844 C 370.628906 1639.949219 359.953125 1663.160156 359.953125 1663.160156 C 359.953125 1663.160156 368.378906 1638.5 417.363281 1606.070312 C 442.386719 1589.5 477.839844 1571.101562 528.203125 1552.828125 C 578.234375 1534.679688 611.839844 1514.121094 637.105469 1490.558594 C 642.695312 1485.339844 659.40625 1468.289062 674.597656 1443.738281 C 698.195312 1405.589844 723.316406 1353.089844 737.414062 1327.679688 C 761.648438 1284 786.582031 1254.878906 816.949219 1234.628906 C 791.15625 1242.191406 761.300781 1251.890625 729.65625 1260.738281 C 718.949219 1263.730469 708.816406 1267.390625 700.929688 1272.070312 C 693.933594 1276.21875 688.550781 1281.78125 682.347656 1288.808594 C 673.347656 1299 661.375 1310.039062 645.539062 1320.761719 C 618.082031 1339.351562 578.597656 1357.78125 521.136719 1368.109375 C 467.210938 1377.800781 424.109375 1382.640625 390.761719 1384.839844 C 331.113281 1388.769531 303.449219 1384.300781 303.449219 1384.300781 C 303.449219 1384.300781 331.21875 1385.839844 389.679688 1375.738281 C 422.183594 1370.128906 463.980469 1360.910156 515.90625 1345.808594 C 556.175781 1334.101562 585.90625 1319.101562 608.074219 1303.75 C 618.988281 1296.191406 627.832031 1288.558594 634.980469 1281.269531 C 630.390625 1281.890625 625.804688 1282.429688 621.234375 1282.890625 C 566.664062 1288.371094 514.4375 1283.421875 473.601562 1254.960938 C 444.011719 1234.339844 414.992188 1220.199219 389.003906 1210.53125 C 334.492188 1190.25 294.335938 1189.269531 294.335938 1189.269531 C 294.335938 1189.269531 334.980469 1184.988281 392.691406 1198.210938 C 421.089844 1204.71875 453.234375 1215.53125 486.890625 1232.949219 C 524.3125 1252.320312 568.738281 1249.878906 613.9375 1239.238281 C 684.839844 1222.558594 756.433594 1184.058594 807.449219 1162.53125 C 839.515625 1148.988281 867.546875 1148.449219 891.199219 1151.96875 C 908.695312 1154.570312 937.15625 1176.789062 968.5 1186.050781 C 1002.328125 1196.058594 1039.050781 1193.058594 1055.308594 1193.191406 C 1100.71875 1193.539062 1150.460938 1189.808594 1177.820312 1175.839844 C 1217.421875 1155.628906 1235.890625 1129.800781 1256.5 1102.558594 C 1307.53125 1035.128906 1291.929688 806.128906 1291.929688 806.128906 L 1522.621094 804.078125 C 1522.621094 804.078125 1517.960938 966.511719 1526.121094 1037.671875 C 1530.851562 1078.839844 1573.738281 1144.519531 1617.75 1173.820312 "/>
</svg>
